<mxfile host="app.diagrams.net" modified="2023-05-23T10:29:20.376Z" agent="Mozilla/5.0 (Windows NT 10.0; Win64; x64) AppleWebKit/537.36 (KHTML, like Gecko) Chrome/113.0.0.0 Safari/537.36" etag="7pn3vTfm-_QpGnZcCOs4" version="21.3.2" type="github">
  <diagram name="Page-1" id="2YBvvXClWsGukQMizWep">
    <mxGraphModel dx="1050" dy="541" grid="1" gridSize="10" guides="1" tooltips="1" connect="1" arrows="1" fold="1" page="1" pageScale="1" pageWidth="850" pageHeight="1100" math="0" shadow="0">
      <root>
        <mxCell id="0" />
        <mxCell id="1" parent="0" />
        <mxCell id="zR-vqtwmWyxMSyTs9lIh-1" value="User" style="shape=umlLifeline;perimeter=lifelinePerimeter;whiteSpace=wrap;html=1;container=1;dropTarget=0;collapsible=0;recursiveResize=0;outlineConnect=0;portConstraint=eastwest;newEdgeStyle={&quot;edgeStyle&quot;:&quot;elbowEdgeStyle&quot;,&quot;elbow&quot;:&quot;vertical&quot;,&quot;curved&quot;:0,&quot;rounded&quot;:0};" vertex="1" parent="1">
          <mxGeometry x="70" y="80" width="100" height="720" as="geometry" />
        </mxCell>
        <mxCell id="zR-vqtwmWyxMSyTs9lIh-5" value="" style="html=1;points=[];perimeter=orthogonalPerimeter;outlineConnect=0;targetShapes=umlLifeline;portConstraint=eastwest;newEdgeStyle={&quot;edgeStyle&quot;:&quot;elbowEdgeStyle&quot;,&quot;elbow&quot;:&quot;vertical&quot;,&quot;curved&quot;:0,&quot;rounded&quot;:0};" vertex="1" parent="zR-vqtwmWyxMSyTs9lIh-1">
          <mxGeometry x="45" y="40" width="10" height="680" as="geometry" />
        </mxCell>
        <mxCell id="zR-vqtwmWyxMSyTs9lIh-6" value="View&amp;nbsp;" style="shape=umlLifeline;perimeter=lifelinePerimeter;whiteSpace=wrap;html=1;container=1;dropTarget=0;collapsible=0;recursiveResize=0;outlineConnect=0;portConstraint=eastwest;newEdgeStyle={&quot;edgeStyle&quot;:&quot;elbowEdgeStyle&quot;,&quot;elbow&quot;:&quot;vertical&quot;,&quot;curved&quot;:0,&quot;rounded&quot;:0};" vertex="1" parent="1">
          <mxGeometry x="270" y="80" width="100" height="720" as="geometry" />
        </mxCell>
        <mxCell id="zR-vqtwmWyxMSyTs9lIh-19" value="" style="html=1;points=[];perimeter=orthogonalPerimeter;outlineConnect=0;targetShapes=umlLifeline;portConstraint=eastwest;newEdgeStyle={&quot;edgeStyle&quot;:&quot;elbowEdgeStyle&quot;,&quot;elbow&quot;:&quot;vertical&quot;,&quot;curved&quot;:0,&quot;rounded&quot;:0};" vertex="1" parent="zR-vqtwmWyxMSyTs9lIh-6">
          <mxGeometry x="45" y="40" width="10" height="680" as="geometry" />
        </mxCell>
        <mxCell id="zR-vqtwmWyxMSyTs9lIh-8" value="Controller" style="shape=umlLifeline;perimeter=lifelinePerimeter;whiteSpace=wrap;html=1;container=1;dropTarget=0;collapsible=0;recursiveResize=0;outlineConnect=0;portConstraint=eastwest;newEdgeStyle={&quot;edgeStyle&quot;:&quot;elbowEdgeStyle&quot;,&quot;elbow&quot;:&quot;vertical&quot;,&quot;curved&quot;:0,&quot;rounded&quot;:0};" vertex="1" parent="1">
          <mxGeometry x="460" y="80" width="100" height="720" as="geometry" />
        </mxCell>
        <mxCell id="zR-vqtwmWyxMSyTs9lIh-9" value="" style="html=1;points=[];perimeter=orthogonalPerimeter;outlineConnect=0;targetShapes=umlLifeline;portConstraint=eastwest;newEdgeStyle={&quot;edgeStyle&quot;:&quot;elbowEdgeStyle&quot;,&quot;elbow&quot;:&quot;vertical&quot;,&quot;curved&quot;:0,&quot;rounded&quot;:0};" vertex="1" parent="zR-vqtwmWyxMSyTs9lIh-8">
          <mxGeometry x="45" y="40" width="10" height="680" as="geometry" />
        </mxCell>
        <mxCell id="zR-vqtwmWyxMSyTs9lIh-10" value="Reference class" style="shape=umlLifeline;perimeter=lifelinePerimeter;whiteSpace=wrap;html=1;container=1;dropTarget=0;collapsible=0;recursiveResize=0;outlineConnect=0;portConstraint=eastwest;newEdgeStyle={&quot;edgeStyle&quot;:&quot;elbowEdgeStyle&quot;,&quot;elbow&quot;:&quot;vertical&quot;,&quot;curved&quot;:0,&quot;rounded&quot;:0};" vertex="1" parent="1">
          <mxGeometry x="660" y="80" width="100" height="720" as="geometry" />
        </mxCell>
        <mxCell id="zR-vqtwmWyxMSyTs9lIh-11" value="" style="html=1;points=[];perimeter=orthogonalPerimeter;outlineConnect=0;targetShapes=umlLifeline;portConstraint=eastwest;newEdgeStyle={&quot;edgeStyle&quot;:&quot;elbowEdgeStyle&quot;,&quot;elbow&quot;:&quot;vertical&quot;,&quot;curved&quot;:0,&quot;rounded&quot;:0};" vertex="1" parent="zR-vqtwmWyxMSyTs9lIh-10">
          <mxGeometry x="45" y="40" width="10" height="680" as="geometry" />
        </mxCell>
        <mxCell id="zR-vqtwmWyxMSyTs9lIh-16" value="Login with Credentials&amp;nbsp;" style="text;html=1;align=center;verticalAlign=middle;resizable=0;points=[];autosize=1;strokeColor=none;fillColor=none;" vertex="1" parent="1">
          <mxGeometry x="150" y="250" width="140" height="30" as="geometry" />
        </mxCell>
        <mxCell id="zR-vqtwmWyxMSyTs9lIh-35" value="" style="edgeStyle=none;orthogonalLoop=1;jettySize=auto;html=1;rounded=0;" edge="1" parent="1" target="zR-vqtwmWyxMSyTs9lIh-19">
          <mxGeometry width="100" relative="1" as="geometry">
            <mxPoint x="130" y="280" as="sourcePoint" />
            <mxPoint x="300" y="290" as="targetPoint" />
            <Array as="points">
              <mxPoint x="180" y="280" />
              <mxPoint x="250" y="280" />
            </Array>
          </mxGeometry>
        </mxCell>
        <mxCell id="zR-vqtwmWyxMSyTs9lIh-36" value="" style="edgeStyle=none;orthogonalLoop=1;jettySize=auto;html=1;rounded=0;" edge="1" parent="1">
          <mxGeometry width="100" relative="1" as="geometry">
            <mxPoint x="130" y="360" as="sourcePoint" />
            <mxPoint x="310" y="360" as="targetPoint" />
            <Array as="points">
              <mxPoint x="210" y="360" />
            </Array>
          </mxGeometry>
        </mxCell>
        <mxCell id="zR-vqtwmWyxMSyTs9lIh-37" value="&lt;br&gt;Navigaet to add englishtotamil&lt;br&gt;page&amp;nbsp;" style="text;html=1;align=center;verticalAlign=middle;resizable=0;points=[];autosize=1;strokeColor=none;fillColor=none;" vertex="1" parent="1">
          <mxGeometry x="130" y="305" width="180" height="60" as="geometry" />
        </mxCell>
        <mxCell id="zR-vqtwmWyxMSyTs9lIh-38" value="" style="edgeStyle=none;orthogonalLoop=1;jettySize=auto;html=1;rounded=0;" edge="1" parent="1">
          <mxGeometry width="100" relative="1" as="geometry">
            <mxPoint x="330" y="400" as="sourcePoint" />
            <mxPoint x="500" y="400" as="targetPoint" />
            <Array as="points">
              <mxPoint x="400" y="400" />
            </Array>
          </mxGeometry>
        </mxCell>
        <mxCell id="zR-vqtwmWyxMSyTs9lIh-39" value="Perform AJAX request" style="text;html=1;align=center;verticalAlign=middle;resizable=0;points=[];autosize=1;strokeColor=none;fillColor=none;" vertex="1" parent="1">
          <mxGeometry x="340" y="358" width="140" height="30" as="geometry" />
        </mxCell>
        <mxCell id="zR-vqtwmWyxMSyTs9lIh-40" value="" style="edgeStyle=none;orthogonalLoop=1;jettySize=auto;html=1;rounded=0;" edge="1" parent="1" target="zR-vqtwmWyxMSyTs9lIh-11">
          <mxGeometry width="100" relative="1" as="geometry">
            <mxPoint x="520" y="400" as="sourcePoint" />
            <mxPoint x="660" y="400" as="targetPoint" />
            <Array as="points" />
          </mxGeometry>
        </mxCell>
        <mxCell id="zR-vqtwmWyxMSyTs9lIh-41" value="Create instance of the reference&lt;br&gt;&amp;nbsp;class&amp;nbsp;" style="text;html=1;align=center;verticalAlign=middle;resizable=0;points=[];autosize=1;strokeColor=none;fillColor=none;" vertex="1" parent="1">
          <mxGeometry x="520" y="353" width="190" height="40" as="geometry" />
        </mxCell>
        <mxCell id="zR-vqtwmWyxMSyTs9lIh-44" value="" style="edgeStyle=none;orthogonalLoop=1;jettySize=auto;html=1;rounded=0;" edge="1" parent="1" target="zR-vqtwmWyxMSyTs9lIh-11">
          <mxGeometry width="100" relative="1" as="geometry">
            <mxPoint x="520" y="560" as="sourcePoint" />
            <mxPoint x="600" y="560" as="targetPoint" />
            <Array as="points" />
          </mxGeometry>
        </mxCell>
        <mxCell id="zR-vqtwmWyxMSyTs9lIh-45" value="Call Perform transliteration method &lt;br&gt;by the text and target language&lt;br&gt;as parameters&amp;nbsp;" style="text;html=1;align=center;verticalAlign=middle;resizable=0;points=[];autosize=1;strokeColor=none;fillColor=none;" vertex="1" parent="1">
          <mxGeometry x="505" y="500" width="210" height="60" as="geometry" />
        </mxCell>
        <mxCell id="zR-vqtwmWyxMSyTs9lIh-53" value="" style="html=1;verticalAlign=bottom;endArrow=open;dashed=1;endSize=8;edgeStyle=elbowEdgeStyle;elbow=vertical;curved=0;rounded=0;" edge="1" parent="1">
          <mxGeometry x="-1" y="100" relative="1" as="geometry">
            <mxPoint x="700" y="640" as="sourcePoint" />
            <mxPoint x="520" y="640" as="targetPoint" />
            <mxPoint x="80" y="-40" as="offset" />
          </mxGeometry>
        </mxCell>
        <mxCell id="zR-vqtwmWyxMSyTs9lIh-54" value="Return Translliterated text&amp;nbsp;" style="text;html=1;align=center;verticalAlign=middle;resizable=0;points=[];autosize=1;strokeColor=none;fillColor=none;" vertex="1" parent="1">
          <mxGeometry x="530" y="608" width="160" height="30" as="geometry" />
        </mxCell>
        <mxCell id="zR-vqtwmWyxMSyTs9lIh-56" value="" style="html=1;verticalAlign=bottom;endArrow=open;dashed=1;endSize=8;edgeStyle=elbowEdgeStyle;elbow=vertical;curved=0;rounded=0;" edge="1" parent="1">
          <mxGeometry x="-1" y="85" relative="1" as="geometry">
            <mxPoint x="500" y="638" as="sourcePoint" />
            <mxPoint x="330" y="638" as="targetPoint" />
            <mxPoint x="80" y="-55" as="offset" />
          </mxGeometry>
        </mxCell>
        <mxCell id="zR-vqtwmWyxMSyTs9lIh-57" value="Return the Transliterated text in &lt;br&gt;text JSON Format" style="text;html=1;align=center;verticalAlign=middle;resizable=0;points=[];autosize=1;strokeColor=none;fillColor=none;" vertex="1" parent="1">
          <mxGeometry x="320" y="598" width="190" height="40" as="geometry" />
        </mxCell>
        <mxCell id="zR-vqtwmWyxMSyTs9lIh-58" value="" style="html=1;verticalAlign=bottom;endArrow=open;dashed=1;endSize=8;edgeStyle=elbowEdgeStyle;elbow=vertical;curved=0;rounded=0;" edge="1" parent="1">
          <mxGeometry x="-1" y="184" relative="1" as="geometry">
            <mxPoint x="310" y="680" as="sourcePoint" />
            <mxPoint x="130" y="680" as="targetPoint" />
            <mxPoint x="70" y="-14" as="offset" />
          </mxGeometry>
        </mxCell>
        <mxCell id="zR-vqtwmWyxMSyTs9lIh-59" value="Update UI with &lt;br&gt;transliterated text&amp;nbsp;" style="text;html=1;align=center;verticalAlign=middle;resizable=0;points=[];autosize=1;strokeColor=none;fillColor=none;" vertex="1" parent="1">
          <mxGeometry x="160" y="638" width="120" height="40" as="geometry" />
        </mxCell>
      </root>
    </mxGraphModel>
  </diagram>
</mxfile>
